<mxfile host="app.diagrams.net" modified="2023-09-11T02:37:08.527Z" agent="Mozilla/5.0 (Windows NT 10.0; Win64; x64) AppleWebKit/537.36 (KHTML, like Gecko) Chrome/116.0.0.0 Safari/537.36" etag="vJ1h-0M-LtBO36MicYOC" version="21.7.4" type="github">
  <diagram name="Page-1" id="74e2e168-ea6b-b213-b513-2b3c1d86103e">
    <mxGraphModel dx="1289" dy="889" grid="1" gridSize="10" guides="1" tooltips="1" connect="1" arrows="1" fold="1" page="1" pageScale="1" pageWidth="1100" pageHeight="850" background="none" math="0" shadow="0">
      <root>
        <mxCell id="0" />
        <mxCell id="1" parent="0" />
        <mxCell id="N3PisCW0dnbsBlv9NRA1-1" value="&lt;font style=&quot;font-size: 24px;&quot;&gt;E&lt;sub&gt;[CLS]&lt;/sub&gt;&lt;/font&gt;" style="rounded=1;whiteSpace=wrap;html=1;" vertex="1" parent="1">
          <mxGeometry x="30" y="730" width="80" height="50" as="geometry" />
        </mxCell>
        <mxCell id="N3PisCW0dnbsBlv9NRA1-5" value="E&lt;sub&gt;1&lt;/sub&gt;&lt;sup&gt;h&lt;/sup&gt;" style="rounded=1;whiteSpace=wrap;html=1;" vertex="1" parent="1">
          <mxGeometry x="120" y="730" width="50" height="50" as="geometry" />
        </mxCell>
        <mxCell id="N3PisCW0dnbsBlv9NRA1-6" value="E&lt;sub&gt;a&lt;/sub&gt;&lt;sup&gt;h&lt;/sup&gt;" style="rounded=1;whiteSpace=wrap;html=1;" vertex="1" parent="1">
          <mxGeometry x="210" y="730" width="50" height="50" as="geometry" />
        </mxCell>
        <mxCell id="N3PisCW0dnbsBlv9NRA1-7" value="E&lt;sub&gt;b&lt;/sub&gt;&lt;span style=&quot;font-size: 10px;&quot;&gt;&lt;sup&gt;r&lt;/sup&gt;&lt;/span&gt;" style="rounded=1;whiteSpace=wrap;html=1;" vertex="1" parent="1">
          <mxGeometry x="440" y="730" width="50" height="50" as="geometry" />
        </mxCell>
        <mxCell id="N3PisCW0dnbsBlv9NRA1-8" value="E&lt;sub&gt;1&lt;/sub&gt;&lt;sup&gt;t&lt;/sup&gt;" style="rounded=1;whiteSpace=wrap;html=1;" vertex="1" parent="1">
          <mxGeometry x="640" y="730" width="50" height="50" as="geometry" />
        </mxCell>
        <mxCell id="N3PisCW0dnbsBlv9NRA1-9" value="E&lt;sub&gt;1&lt;/sub&gt;&lt;sup&gt;r&lt;/sup&gt;" style="rounded=1;whiteSpace=wrap;html=1;" vertex="1" parent="1">
          <mxGeometry x="369" y="731" width="50" height="50" as="geometry" />
        </mxCell>
        <mxCell id="N3PisCW0dnbsBlv9NRA1-10" value="E&lt;sub&gt;[SEP]&lt;/sub&gt;&lt;sup&gt;h&lt;/sup&gt;" style="rounded=1;whiteSpace=wrap;html=1;" vertex="1" parent="1">
          <mxGeometry x="300" y="730" width="50" height="50" as="geometry" />
        </mxCell>
        <mxCell id="N3PisCW0dnbsBlv9NRA1-11" value="Ea&lt;sup&gt;h&lt;/sup&gt;" style="rounded=1;whiteSpace=wrap;html=1;" vertex="1" parent="1">
          <mxGeometry x="560" y="730" width="50" height="50" as="geometry" />
        </mxCell>
        <mxCell id="N3PisCW0dnbsBlv9NRA1-12" value="E&lt;span style=&quot;font-size: 10px;&quot;&gt;&lt;sub&gt;[SEP]&lt;/sub&gt;&lt;sup&gt;r&lt;/sup&gt;&lt;/span&gt;" style="rounded=1;whiteSpace=wrap;html=1;" vertex="1" parent="1">
          <mxGeometry x="500" y="730" width="50" height="50" as="geometry" />
        </mxCell>
        <mxCell id="N3PisCW0dnbsBlv9NRA1-13" value="E&lt;sub&gt;c&lt;/sub&gt;&lt;sup&gt;t&lt;/sup&gt;" style="rounded=1;whiteSpace=wrap;html=1;" vertex="1" parent="1">
          <mxGeometry x="710" y="731" width="50" height="50" as="geometry" />
        </mxCell>
        <mxCell id="N3PisCW0dnbsBlv9NRA1-14" value="E&lt;sub&gt;[SEP]&lt;/sub&gt;&lt;sup&gt;t&lt;/sup&gt;" style="rounded=1;whiteSpace=wrap;html=1;" vertex="1" parent="1">
          <mxGeometry x="790" y="731" width="50" height="50" as="geometry" />
        </mxCell>
      </root>
    </mxGraphModel>
  </diagram>
</mxfile>
